<?xml version="1.0" encoding="UTF-8"?>
<svg id="_Слой_1" data-name="Слой_1" xmlns="http://www.w3.org/2000/svg" version="1.1" viewBox="0 0 60 30">
  <!-- Generator: Adobe Illustrator 29.1.0, SVG Export Plug-In . SVG Version: 2.1.0 Build 142)  -->
  <defs>
    <style>
      .st0 {
        fill: #b5a0a0;
      }

      .st1 {
        fill: red;
      }

      .st2 {
        fill: #442828;
      }
    </style>
  </defs>
  <g>
    <rect class="st0" x="17.5" y="8.5" width="24" height="13"/>
    <path class="st2" d="M41,9v12h-23v-12h23M42,8h-25v14h25v-14h0Z"/>
  </g>
  <g>
    <rect class="st0" x="17.5" y="17.5" width="24" height="4"/>
    <path class="st2" d="M41,18v3h-23v-3h23M42,17h-25v5h25v-5h0Z"/>
  </g>
  <g>
    <rect class="st0" x="14.5" y="14.5" width="5" height="10"/>
    <path class="st2" d="M19,15v9h-4v-9h4M20,14h-6v11h6v-11h0Z"/>
  </g>
  <g>
    <rect class="st0" x="39.5" y="14.5" width="5" height="10"/>
    <path class="st2" d="M44,15v9h-4v-9h4M45,14h-6v11h6v-11h0Z"/>
  </g>
  <path class="st1" d="M20.59,25.23s0,.02-.02.03c-.93.51-2.75,1.34-4.9,1.34-2.42,0-4.42-.94-5.98-3.23-1.38-2.04-2.23-5.31-2.23-9.12.02-7.31,3.3-12.65,8.66-12.65,1.84,0,3.27.61,3.97,1.11.01,0,.02.02.01.04l-.49,2.56c-.85-.58-1.92-1.05-3.54-1.05-3.89,0-6.43,3.71-6.43,9.85s2.44,9.88,6.17,9.88c1.34,0,2.26-.28,2.74-.64,0,0,.01-.02.01-.03v-7.25s-.02-.04-.04-.04h-3.18s-.04-.02-.04-.04v-2.47s.02-.04.04-.04h5.2s.04.02.04.04v11.71Z"/>
  <text/>
  <path class="st1" d="M16,16"/>
</svg>